<svg width="256" height="256" viewBox="0 0 256 256" fill="none" xmlns="http://www.w3.org/2000/svg">
  <defs>
    <linearGradient id="bg" x1="28" y1="24" x2="224" y2="232" gradientUnits="userSpaceOnUse">
      <stop stop-color="#0D5E7A"/>
      <stop offset="0.55" stop-color="#13906E"/>
      <stop offset="1" stop-color="#FF9933"/>
    </linearGradient>
    <linearGradient id="book" x1="72" y1="86" x2="184" y2="188" gradientUnits="userSpaceOnUse">
      <stop stop-color="#FFFFFF"/>
      <stop offset="1" stop-color="#D9F4EC"/>
    </linearGradient>
  </defs>
  <rect x="16" y="16" width="224" height="224" rx="56" fill="url(#bg)"/>
  <path d="M86 78C71.64 78 60 89.64 60 104V166.5C60 170.64 63.36 174 67.5 174H114.5C123.64 174 132.04 177.58 138.25 183.55C139.86 185.1 142.41 185.1 144.02 183.55C150.23 177.58 158.63 174 167.77 174H188.5C192.64 174 196 170.64 196 166.5V104C196 89.64 184.36 78 170 78H86Z" fill="url(#book)"/>
  <path d="M128 86V177" stroke="#0D5E7A" stroke-width="8" stroke-linecap="round"/>
  <path d="M78 104.5C92.54 100.59 106.82 100.29 120 105.75V161.5C106.82 156.04 92.54 156.34 78 160.25V104.5Z" fill="#EAF8F3"/>
  <path d="M178 104.5C163.46 100.59 149.18 100.29 136 105.75V161.5C149.18 156.04 163.46 156.34 178 160.25V104.5Z" fill="#F6FFFC"/>
  <path d="M172.69 52C156.84 52 144 64.84 144 80.69C144 101.58 172.69 129 172.69 129C172.69 129 201.38 101.58 201.38 80.69C201.38 64.84 188.54 52 172.69 52Z" fill="#FF7B2C"/>
  <circle cx="172.69" cy="80.69" r="11.69" fill="white"/>
  <path d="M91 198H165" stroke="white" stroke-width="9" stroke-linecap="round" opacity="0.9"/>
  <path d="M108 216H148" stroke="white" stroke-width="9" stroke-linecap="round" opacity="0.7"/>
</svg>
